<?xml version="1.0" encoding="iso-8859-1"?>
<!-- Generator: Adobe Illustrator 19.0.0, SVG Export Plug-In . SVG Version: 6.00 Build 0)  -->
<svg version="1.1" id="Layer_1" xmlns="http://www.w3.org/2000/svg" xmlns:xlink="http://www.w3.org/1999/xlink" x="0px" y="0px"
	 viewBox="0 0 512 512" style="enable-background:new 0 0 512 512;" xml:space="preserve">
<rect x="57.96" y="170.144" style="fill:#CFDCE5;" width="396.08" height="255.952"/>
<rect x="107.104" y="170.096" style="fill:#FFFFFF;" width="297.36" height="256"/>
<g>
	<rect x="54.4" y="175.432" style="fill:#8BA0AE;" width="8" height="247.4"/>
	<rect x="103.544" y="175.448" style="fill:#8BA0AE;" width="8" height="247.4"/>
	<rect x="449.592" y="175.432" style="fill:#8BA0AE;" width="8" height="247.4"/>
	<rect x="400.472" y="175.448" style="fill:#8BA0AE;" width="8" height="247.4"/>
</g>
<polyline style="fill:#CFDCE5;" points="60.12,84.624 256.088,0 452.048,84.624 "/>
<g>
	<rect x="23.88" y="420.92" style="fill:#AAC1CE;" width="464.24" height="91.08"/>
	<rect x="23.88" y="84.624" style="fill:#AAC1CE;" width="464.24" height="91.08"/>
</g>
<rect x="202.824" y="113.8" style="fill:#CFDCE5;" width="106.328" height="32.736"/>
<g style="opacity:0.5;">
	<rect x="400.392" y="175.704" style="fill:#415E72;" width="57.136" height="28.472"/>
</g>
<g style="opacity:0.5;">
	<rect x="54.4" y="175.704" style="fill:#415E72;" width="57.136" height="28.472"/>
</g>
<path style="fill:#32BEA6;" d="M308.776,371c-11.744,6.656-25.016,10.12-38.512,10.064c-21.944,0.616-42.944-8.952-56.88-25.92
	c-8.792-10.728-14.312-23.76-15.888-37.544h-16.112v-15.32h14.096v-4c0-3.016,0.248-6.288,0.504-9.056h-14.6V273.6h16.856
	c2.584-14.192,9.128-27.368,18.88-38.008c13.792-15.48,33.672-24.128,54.4-23.664c12.432-0.088,24.728,2.576,36,7.808l-6.296,23.416
	c-8.72-4.472-18.384-6.8-28.184-6.8c-12.184-0.32-23.888,4.744-32,13.84c-5.752,6.648-9.584,14.744-11.08,23.408h65.952v15.6h-68.96
	c-0.424,2.912-0.584,5.856-0.496,8.8v4.28h69.48v15.32h-66.704c1.104,9.112,4.864,17.688,10.824,24.672
	c8.8,9.12,21.064,14.064,33.728,13.6c10.36-0.12,20.544-2.712,29.704-7.552L308.776,371z"/>
<g>
</g>
<g>
</g>
<g>
</g>
<g>
</g>
<g>
</g>
<g>
</g>
<g>
</g>
<g>
</g>
<g>
</g>
<g>
</g>
<g>
</g>
<g>
</g>
<g>
</g>
<g>
</g>
<g>
</g>
</svg>
