<?xml version="1.0" encoding="iso-8859-1"?>
<!-- Generator: Adobe Illustrator 19.0.0, SVG Export Plug-In . SVG Version: 6.00 Build 0)  -->
<svg version="1.1" id="Capa_1" xmlns="http://www.w3.org/2000/svg" xmlns:xlink="http://www.w3.org/1999/xlink" x="0px" y="0px"
	 viewBox="0 0 512 512" style="enable-background:new 0 0 512 512;" xml:space="preserve">
<polygon style="fill:#424242;" points="477.863,186.455 34.135,186.455 255.998,49.922 "/>
<path style="fill:#9E9E9E;" d="M436.221,186.455H75.777L247.039,81.069c5.486-3.413,12.435-3.413,17.921,0L436.221,186.455z"/>
<polygon style="fill:#424242;" points="503.463,160.855 477.863,186.455 255.998,49.922 34.135,186.455 8.534,160.855 
	255.998,9.816 "/>
<path d="M477.863,194.987c-1.58,0-3.129-0.438-4.474-1.267L255.998,59.943L38.609,193.721c-3.367,2.068-7.711,1.558-10.508-1.233
	l-25.6-25.601c-3.332-3.327-3.336-8.725-0.009-12.057c0.482-0.483,1.019-0.905,1.601-1.26L251.558,2.531
	c2.727-1.666,6.157-1.666,8.883,0l247.464,151.04c4.022,2.447,5.299,7.693,2.851,11.716c-0.354,0.582-0.777,1.119-1.26,1.601
	l-25.6,25.6C482.296,194.089,480.126,194.988,477.863,194.987z M255.998,41.389c1.58,0,3.129,0.438,4.474,1.267l216.123,132.999
	l13.167-13.167L255.998,19.81L22.234,162.488l13.167,13.167L251.524,42.656C252.869,41.827,254.418,41.389,255.998,41.389z"/>
<g>
	<path style="fill:#37474F;" d="M307.198,468.051h179.198c9.414,0.027,17.039,7.652,17.066,17.066v17.066H8.534v-17.066
		c0.027-9.414,7.652-17.039,17.066-17.066h179.198"/>
	<path style="fill:#37474F;" d="M34.135,468.051v-17.066c0.121-9.505,7.895-17.13,17.401-17.066h408.926
		c9.506-0.063,17.28,7.561,17.401,17.066v17.066"/>
</g>
<g>
	<path style="fill:#607D8B;" d="M286.6,468.051H453.44c9.084,0.363,16.175,7.98,15.89,17.066v17.066H8.534v-17.066
		c-0.287-9.086,6.806-16.703,15.89-17.066h166.839"/>
	<path style="fill:#607D8B;" d="M32.369,468.051v-17.066c-0.206-9.173,7.029-16.795,16.201-17.066h380.725
		c9.172,0.272,16.406,7.893,16.201,17.066v17.066"/>
</g>
<path d="M503.463,510.718H8.534C3.822,510.719,0.001,506.9,0,502.189c0-0.001,0-0.003,0-0.004v-17.066
	c0.016-14.132,11.468-25.585,25.6-25.6h179.198c4.713,0,8.534,3.821,8.534,8.534s-3.821,8.534-8.534,8.534H25.601
	c-4.711,0.004-8.528,3.822-8.534,8.534v8.534h477.862v-8.534c-0.004-4.711-3.822-8.528-8.534-8.534H307.197
	c-4.713,0-8.534-3.821-8.534-8.534s3.821-8.534,8.534-8.534h179.198c14.132,0.016,25.585,11.468,25.6,25.6v17.066
	c0.001,4.712-3.818,8.532-8.528,8.534C503.466,510.718,503.464,510.718,503.463,510.718z"/>
<path d="M477.863,476.585c-4.712,0.001-8.533-3.818-8.534-8.528c0-0.001,0-0.003,0-0.004v-17.066
	c-0.099-4.802-4.064-8.619-8.867-8.534H51.534c-4.802-0.085-8.768,3.731-8.867,8.534v17.066c0,4.713-3.821,8.534-8.534,8.534
	s-8.534-3.821-8.534-8.534v-17.066c0.109-14.223,11.709-25.675,25.933-25.6h408.929c14.223-0.076,25.825,11.376,25.933,25.6v17.066
	c0.001,4.712-3.818,8.533-8.529,8.534C477.866,476.585,477.864,476.585,477.863,476.585z"/>
<polygon style="fill:#424242;" points="477.863,186.455 460.796,220.588 51.201,220.588 34.135,186.455 "/>
<path d="M460.796,229.12H51.201c-3.232,0-6.187-1.826-7.633-4.717L26.501,190.27c-2.107-4.216-0.398-9.342,3.818-11.449
	c1.185-0.592,2.491-0.9,3.816-0.9h443.728c4.714,0,8.534,3.821,8.534,8.535c0,1.325-0.309,2.631-0.9,3.816l-17.066,34.133
	C466.983,227.295,464.029,229.12,460.796,229.12z M56.475,212.054h399.047l8.534-17.066H47.943L56.475,212.054z"/>
<g>
	<path style="fill:#37474F;" d="M51.201,220.588h85.332l0,0v17.066c0,9.425-7.641,17.066-17.066,17.066h-51.2
		c-9.425,0-17.066-7.641-17.066-17.066L51.201,220.588L51.201,220.588z"/>
	<path style="fill:#37474F;" d="M68.267,399.786h51.199c9.425,0,17.066,7.641,17.066,17.066v17.066l0,0H51.201l0,0v-17.066
		C51.201,407.427,58.841,399.786,68.267,399.786z"/>
	<path style="fill:#37474F;" d="M136.533,220.588h85.332l0,0v17.066c0,9.425-7.641,17.066-17.066,17.066H153.6
		c-9.425,0-17.066-7.641-17.066-17.066v-17.066H136.533z"/>
	<path style="fill:#37474F;" d="M153.6,399.786h51.199c9.425,0,17.066,7.641,17.066,17.066v17.066l0,0h-85.332l0,0v-17.066
		C136.533,407.427,144.174,399.786,153.6,399.786z"/>
	<path style="fill:#37474F;" d="M290.131,220.588h85.332l0,0v17.066c0,9.425-7.641,17.066-17.066,17.066h-51.199
		c-9.425,0-17.066-7.641-17.066-17.066v-17.066H290.131z"/>
	<path style="fill:#37474F;" d="M307.198,399.786h51.199c9.425,0,17.066,7.641,17.066,17.066v17.066l0,0h-85.332l0,0v-17.066
		C290.131,407.427,297.772,399.786,307.198,399.786z"/>
	<path style="fill:#37474F;" d="M375.464,220.588h85.332l0,0v17.066c0,9.425-7.641,17.066-17.066,17.066h-51.199
		c-9.425,0-17.066-7.641-17.066-17.066v-17.066H375.464z"/>
	<path style="fill:#37474F;" d="M392.531,399.786h51.199c9.425,0,17.066,7.641,17.066,17.066v17.066l0,0h-85.332l0,0v-17.066
		C375.464,407.427,383.104,399.786,392.531,399.786z"/>
</g>
<path d="M119.467,263.253h-51.2c-14.132-0.016-25.585-11.468-25.6-25.6v-17.066c-0.001-4.712,3.818-8.532,8.529-8.534
	c0.001,0,0.003,0,0.004,0h85.332c4.712-0.001,8.532,3.818,8.534,8.529c0,0.001,0,0.003,0,0.004v17.066
	C145.051,251.785,133.598,263.239,119.467,263.253z M59.734,229.12v8.534c0.004,4.711,3.822,8.528,8.534,8.534h51.199
	c4.711-0.004,8.528-3.822,8.534-8.534v-8.534H59.734z"/>
<path d="M136.533,442.451H51.201c-4.712,0.001-8.532-3.818-8.534-8.529c0-0.001,0-0.003,0-0.004v-17.066
	c0.016-14.132,11.468-25.585,25.6-25.6h51.199c14.132,0.016,25.585,11.468,25.6,25.6v17.066c0.001,4.712-3.818,8.532-8.529,8.534
	C136.536,442.451,136.535,442.451,136.533,442.451z M59.734,425.385H128v-8.534c-0.004-4.711-3.822-8.528-8.534-8.534h-51.2
	c-4.711,0.004-8.528,3.822-8.534,8.534v8.534H59.734z"/>
<g>
	<rect x="68.267" y="254.72" style="fill:#37474F;" width="51.199" height="145.068"/>
	<rect x="153.595" y="254.72" style="fill:#37474F;" width="51.199" height="145.068"/>
	<rect x="307.201" y="254.72" style="fill:#37474F;" width="51.199" height="145.068"/>
	<rect x="392.526" y="254.72" style="fill:#37474F;" width="51.199" height="145.068"/>
</g>
<g>
	<rect x="68.267" y="254.72" style="fill:#607D8B;" width="25.6" height="145.068"/>
	<rect x="153.595" y="254.72" style="fill:#607D8B;" width="25.6" height="145.068"/>
	<rect x="307.201" y="254.72" style="fill:#607D8B;" width="25.6" height="145.068"/>
	<rect x="392.526" y="254.72" style="fill:#607D8B;" width="25.6" height="145.068"/>
</g>
<path d="M119.467,408.318h-51.2c-4.712,0.001-8.532-3.818-8.534-8.529c0-0.001,0-0.003,0-0.004V254.72
	c-0.001-4.712,3.818-8.532,8.529-8.534c0.001,0,0.003,0,0.004,0h51.199c4.712-0.001,8.532,3.818,8.534,8.529
	c0,0.001,0,0.003,0,0.004v145.065c0.001,4.712-3.818,8.532-8.529,8.534C119.47,408.318,119.468,408.318,119.467,408.318z
	 M76.8,391.252h34.133V263.253H76.8V391.252z"/>
<path d="M204.799,263.253H153.6c-14.132-0.016-25.585-11.468-25.6-25.6v-17.066c-0.001-4.712,3.818-8.532,8.529-8.534
	c0.001,0,0.003,0,0.004,0h85.332c4.712-0.001,8.533,3.818,8.534,8.529c0,0.001,0,0.003,0,0.004v17.066
	C230.383,251.785,218.931,263.239,204.799,263.253z M145.066,229.12v8.534c0.004,4.711,3.822,8.528,8.534,8.534h51.199
	c4.711-0.004,8.528-3.822,8.534-8.534v-8.534H145.066z"/>
<path d="M221.865,442.451h-85.332c-4.712,0.001-8.533-3.818-8.534-8.529c0-0.001,0-0.003,0-0.004v-17.066
	c0.016-14.132,11.468-25.585,25.6-25.6h51.199c14.132,0.016,25.585,11.468,25.6,25.6v17.066c0.001,4.712-3.818,8.532-8.528,8.534
	C221.868,442.451,221.867,442.451,221.865,442.451z M145.066,425.385h68.266v-8.534c-0.004-4.711-3.822-8.528-8.534-8.534H153.6
	c-4.711,0.004-8.528,3.822-8.534,8.534V425.385z"/>
<path d="M204.799,408.318H153.6c-4.712,0.001-8.532-3.818-8.534-8.529c0-0.001,0-0.003,0-0.004V254.72
	c-0.001-4.712,3.818-8.532,8.529-8.534c0.001,0,0.003,0,0.004,0h51.199c4.712-0.001,8.532,3.818,8.534,8.529
	c0,0.001,0,0.003,0,0.004v145.065c0.001,4.712-3.818,8.532-8.528,8.534C204.802,408.318,204.8,408.318,204.799,408.318z
	 M162.132,391.252h34.133V263.253h-34.133V391.252z"/>
<path d="M358.398,263.253h-51.199c-14.132-0.016-25.585-11.468-25.6-25.6v-17.066c-0.001-4.712,3.818-8.532,8.528-8.534
	c0.001,0,0.003,0,0.004,0h85.332c4.712-0.001,8.532,3.818,8.534,8.529c0,0.001,0,0.003,0,0.004v17.066
	C383.981,251.785,372.529,263.239,358.398,263.253z M298.665,229.12v8.534c0.004,4.711,3.822,8.528,8.534,8.534h51.199
	c4.711-0.004,8.528-3.822,8.534-8.534v-8.534H298.665z"/>
<path d="M375.464,442.451h-85.332c-4.712,0.001-8.533-3.818-8.534-8.529c0-0.001,0-0.003,0-0.004v-17.066
	c0.016-14.132,11.468-25.585,25.6-25.6h51.199c14.132,0.016,25.585,11.468,25.6,25.6v17.066c0.001,4.712-3.818,8.532-8.529,8.534
	C375.467,442.451,375.466,442.451,375.464,442.451z M298.665,425.385h68.266v-8.534c-0.004-4.711-3.822-8.528-8.534-8.534h-51.199
	c-4.711,0.004-8.528,3.822-8.534,8.534L298.665,425.385L298.665,425.385z"/>
<path d="M358.398,408.318h-51.199c-4.712,0.001-8.532-3.818-8.534-8.529c0-0.001,0-0.003,0-0.004V254.72
	c-0.001-4.712,3.818-8.532,8.529-8.534c0.001,0,0.003,0,0.004,0h51.199c4.712-0.001,8.532,3.818,8.534,8.529
	c0,0.001,0,0.003,0,0.004v145.065c0.001,4.712-3.818,8.532-8.529,8.534C358.401,408.318,358.399,408.318,358.398,408.318z
	 M315.731,391.252h34.133V263.253h-34.133V391.252z"/>
<path d="M443.73,263.253h-51.199c-14.132-0.016-25.585-11.468-25.6-25.6v-17.066c-0.001-4.712,3.818-8.532,8.529-8.534
	c0.001,0,0.003,0,0.004,0h85.332c4.712-0.001,8.532,3.818,8.534,8.529c0,0.001,0,0.003,0,0.004v17.066
	C469.314,251.785,457.862,263.239,443.73,263.253z M383.997,229.12v8.534c0.004,4.711,3.822,8.528,8.534,8.534h51.199
	c4.711-0.004,8.528-3.822,8.534-8.534v-8.534H383.997z"/>
<path d="M460.796,442.451h-85.332c-4.712,0.001-8.533-3.818-8.534-8.529c0-0.001,0-0.003,0-0.004v-17.066
	c0.016-14.132,11.468-25.585,25.6-25.6h51.199c14.132,0.016,25.584,11.468,25.6,25.6v17.066c0.001,4.712-3.818,8.532-8.529,8.534
	C460.799,442.451,460.798,442.451,460.796,442.451z M383.997,425.385h68.266v-8.534c-0.004-4.711-3.822-8.528-8.534-8.534h-51.199
	c-4.711,0.004-8.528,3.822-8.534,8.534L383.997,425.385L383.997,425.385z"/>
<path d="M443.73,408.318h-51.199c-4.712,0.001-8.533-3.818-8.534-8.529c0-0.001,0-0.003,0-0.004V254.72
	c-0.001-4.712,3.818-8.532,8.529-8.534c0.001,0,0.003,0,0.004,0h51.199c4.712-0.001,8.532,3.818,8.534,8.529
	c0,0.001,0,0.003,0,0.004v145.065c0.001,4.712-3.818,8.532-8.529,8.534C443.733,408.318,443.731,408.318,443.73,408.318z
	 M401.063,391.252h34.133V263.253h-34.133V391.252z"/>
<circle style="fill:#FFEB3A;" cx="255.995" cy="122.458" r="25.6"/>
<path d="M255.998,156.588c-18.852,0-34.133-15.282-34.133-34.133s15.282-34.133,34.133-34.133s34.133,15.282,34.133,34.133
	C290.111,141.297,274.841,156.568,255.998,156.588z M255.998,105.388c-9.425,0-17.066,7.641-17.066,17.066
	s7.641,17.066,17.066,17.066s17.066-7.641,17.066-17.066C273.054,113.034,265.419,105.4,255.998,105.388z"/>
<g>
</g>
<g>
</g>
<g>
</g>
<g>
</g>
<g>
</g>
<g>
</g>
<g>
</g>
<g>
</g>
<g>
</g>
<g>
</g>
<g>
</g>
<g>
</g>
<g>
</g>
<g>
</g>
<g>
</g>
</svg>
