<?xml version="1.0" encoding="iso-8859-1"?>
<!-- Generator: Adobe Illustrator 19.0.0, SVG Export Plug-In . SVG Version: 6.00 Build 0)  -->
<svg version="1.1" id="Capa_1" xmlns="http://www.w3.org/2000/svg" xmlns:xlink="http://www.w3.org/1999/xlink" x="0px" y="0px"
	 viewBox="0 0 512 512" style="enable-background:new 0 0 512 512;" xml:space="preserve">
<path style="fill:#536080;" d="M183.721,512h-78.306c-8.316,0-15.059-6.742-15.059-15.059v-45.173
	c0-8.316,6.742-15.059,15.059-15.059h78.306c8.316,0,15.059,6.742,15.059,15.059v45.173C198.779,505.258,192.037,512,183.721,512z"
	/>
<g>
	<path style="fill:#394257;" d="M406.591,512h-78.306c-8.316,0-15.059-6.742-15.059-15.059v-45.173
		c0-8.316,6.742-15.059,15.059-15.059h78.306c8.316,0,15.059,6.742,15.059,15.059v45.173C421.65,505.258,414.908,512,406.591,512z"
		/>
	<path style="fill:#394257;" d="M495.272,123.987c-8.316,0-15.059,6.742-15.059,15.059v15.561h-34.387v30.118h34.387v15.561
		c0,8.316,6.742,15.059,15.059,15.059c8.316,0,15.059-6.742,15.059-15.059v-61.239C510.331,130.73,503.588,123.987,495.272,123.987z
		"/>
</g>
<path style="fill:#536080;" d="M31.787,139.046c0-8.316-6.742-15.059-15.059-15.059S1.67,130.73,1.67,139.046v61.239
	c0,8.316,6.742,15.059,15.059,15.059s15.059-6.742,15.059-15.059v-15.561h34.386v-30.118H31.787V139.046z"/>
<path style="fill:#FFDE42;" d="M421.227,466.827H90.773c-21.866,0-39.657-17.789-39.657-39.656V39.657
	C51.116,17.79,68.905,0,90.773,0h330.455c21.866,0,39.657,17.79,39.657,39.657v387.514
	C460.884,449.037,443.094,466.827,421.227,466.827z"/>
<path style="fill:#B4E8FF;" d="M445.826,351.081H66.174c-8.316,0-15.059-6.742-15.059-15.059V111.104
	c0-8.316,6.742-15.059,15.059-15.059h379.651c8.316,0,15.059,6.742,15.059,15.059v224.919
	C460.884,344.339,454.142,351.081,445.826,351.081z"/>
<g>
	<path style="fill:#FFE587;" d="M331.297,67.266H180.709c-8.316,0-15.059-6.742-15.059-15.059s6.742-15.059,15.059-15.059h150.588
		c8.316,0,15.059,6.742,15.059,15.059S339.614,67.266,331.297,67.266z"/>
	<path style="fill:#FFE587;" d="M138.544,408.6c7.877,0,15.423-6.926,15.059-15.059c-0.365-8.159-6.617-15.059-15.059-15.059
		c-7.877,0-15.423,6.926-15.059,15.059C123.851,401.7,130.102,408.6,138.544,408.6L138.544,408.6z"/>
</g>
<path style="fill:#FFCE1F;" d="M421.227,0h-165.23v466.827h165.23c21.866,0,39.657-17.789,39.657-39.656V39.657
	C460.884,17.79,443.094,0,421.227,0z"/>
<g>
	<path style="fill:#FFDE42;" d="M382.497,410.608c7.877,0,15.423-6.926,15.059-15.059c-0.365-8.159-6.617-15.059-15.059-15.059
		c-7.877,0-15.423,6.926-15.059,15.059C367.804,403.708,374.055,410.608,382.497,410.608L382.497,410.608z"/>
	<path style="fill:#FFDE42;" d="M331.297,37.148h-75.3v30.118h75.3c8.316,0,15.059-6.742,15.059-15.059
		S339.614,37.148,331.297,37.148z"/>
</g>
<path style="fill:#6AD3FF;" d="M445.826,96.045H255.997v255.036h189.829c8.316,0,15.059-6.742,15.059-15.059V111.104
	C460.884,102.788,454.142,96.045,445.826,96.045z"/>
<g>
</g>
<g>
</g>
<g>
</g>
<g>
</g>
<g>
</g>
<g>
</g>
<g>
</g>
<g>
</g>
<g>
</g>
<g>
</g>
<g>
</g>
<g>
</g>
<g>
</g>
<g>
</g>
<g>
</g>
</svg>
