<svg id="Flat" height="512" viewBox="0 0 512 512" width="512" xmlns="http://www.w3.org/2000/svg"><path d="m40 296h48v200h-48z" fill="#e44b4d"/><path d="m136 210.467h48v285.533h-48z" fill="#eb6d3b" transform="matrix(-1 0 0 -1 320 706.467)"/><path d="m232 152h48v344h-48z" fill="#efa702"/><path d="m328 88h48v408h-48z" fill="#4ba477" transform="matrix(-1 0 0 -1 704 584)"/><path d="m424 24h48v472h-48z" fill="#396795"/><path d="m376 368a119.87414 119.87414 0 1 1 -89.66-116.12988 119.62642 119.62642 0 0 1 89.66 116.12988z" fill="#8acce7"/><path d="m376 368a119.62642 119.62642 0 0 1 -39.25 88.75l-16.75-16.75 8-24-32-24 16-16v-32h-24l-24-40 22.34-52.12988a120.05677 120.05677 0 0 1 89.66 116.12988z" fill="#a2c32a"/><path d="m200 328-8 24 16 8-16 32 40 16-8 16h-32l-10.81 37.82007a120.00233 120.00233 0 0 1 8.66-193.94995l42.15 36.12988v32z" fill="#a2c32a"/><path d="m256 496a39.03369 39.03369 0 0 0 -31.37855-38.27568l-8.62145-1.72432h-32l-8.62145 1.72429a39.03369 39.03369 0 0 0 -31.37855 38.27571z" fill="#395166"/><path d="m216 480h16v16h-16z" fill="#2f4054"/><path d="m168 480h16v16h-16z" fill="#2f4054"/><path d="m160 408a16 16 0 0 0 -16 16 16 16 0 0 0 16 16h80a16 16 0 0 0 16-16 16 16 0 0 0 -16-16z" fill="#f2c194"/><path d="m168 388v36a32.001 32.001 0 0 0 16 27.72v4.28a16 16 0 0 0 16 16 16 16 0 0 0 16-16v-4.28a32.01294 32.01294 0 0 0 16-27.72v-36z" fill="#f4ceaf"/><path d="m184 388a20 20 0 0 0 20 20h36v-20a12 12 0 0 0 -12-12h-32a12 12 0 0 0 -12 12z" fill="#ad7d4d"/><path d="m160 388v20h4a20 20 0 0 0 20-20 12 12 0 0 0 -12-12 12 12 0 0 0 -12 12z" fill="#ad7d4d"/><path d="m48 408a16 16 0 0 0 -16 16 16 16 0 0 0 16 16h80a16 16 0 0 0 16-16 16 16 0 0 0 -16-16z" fill="#f2c194"/><path d="m144 496a39.03369 39.03369 0 0 0 -31.37855-38.27568l-8.62145-1.72432h-32l-8.62145 1.72429a39.03369 39.03369 0 0 0 -31.37855 38.27571z" fill="#eebe33"/><path d="m56 388v36a32.001 32.001 0 0 0 16 27.72v4.28a16 16 0 0 0 16 16 16 16 0 0 0 16-16v-4.28a32.01294 32.01294 0 0 0 16-27.72v-36z" fill="#f4ceaf"/><path d="m104 480h16v16h-16z" fill="#e88604"/><path d="m56 480h16v16h-16z" fill="#e88604"/><path d="m72 388a20 20 0 0 0 20 20h36v-20a12 12 0 0 0 -12-12h-32a12 12 0 0 0 -12 12z" fill="#ad7d4d"/><path d="m48 388v20h4a20 20 0 0 0 20-20 12 12 0 0 0 -12-12 12 12 0 0 0 -12 12z" fill="#ad7d4d"/><path d="m480 496a39.03369 39.03369 0 0 0 -31.37855-38.27568l-8.62145-1.72432h-32l-8.62145 1.72429a39.03369 39.03369 0 0 0 -31.37855 38.27571z" fill="#eebe33"/><path d="m440 480h16v16h-16z" fill="#e88604"/><path d="m392 480h16v16h-16z" fill="#e88604"/><path d="m384 408a16 16 0 0 0 -16 16 16 16 0 0 0 16 16h80a16 16 0 0 0 16-16 16 16 0 0 0 -16-16z" fill="#f2c194"/><path d="m392 388v36a32.001 32.001 0 0 0 16 27.72v4.28a16 16 0 0 0 16 16 16 16 0 0 0 16-16v-4.28a32.01294 32.01294 0 0 0 16-27.72v-36z" fill="#f4ceaf"/><g fill="#ad7d4d"><path d="m408 388a20 20 0 0 0 20 20h36v-20a12 12 0 0 0 -12-12h-32a12 12 0 0 0 -12 12z"/><path d="m384 388v20h4a20 20 0 0 0 20-20 12 12 0 0 0 -12-12 12 12 0 0 0 -12 12z"/><path d="m352 408a79.26656 79.26656 0 0 0 13.31279 43.96917l2.68721 4.03083-1.37261 1.37261a77.25476 77.25476 0 0 1 -54.62739 22.62739 77.25476 77.25476 0 0 1 -54.62736-22.62739l-1.37264-1.37261 2.68721-4.03081a79.26656 79.26656 0 0 0 13.31279-43.96919z"/></g><path d="m368 496a39.03369 39.03369 0 0 0 -31.37855-38.27568l-8.62145-1.72432h-32l-8.62145 1.72429a39.03369 39.03369 0 0 0 -31.37855 38.27571z" fill="#e9afc0"/><path d="m328 480h16v16h-16z" fill="#e68aae"/><path d="m280 480h16v16h-16z" fill="#e68aae"/><path d="m272 408a16 16 0 0 0 -16 16 16 16 0 0 0 16 16h80a16 16 0 0 0 16-16 16 16 0 0 0 -16-16z" fill="#f2c194"/><path d="m280 388v36a32.001 32.001 0 0 0 16 27.72v4.28a16 16 0 0 0 16 16 16 16 0 0 0 16-16v-4.28a32.01294 32.01294 0 0 0 16-27.72v-36z" fill="#f4ceaf"/><path d="m272 388v20h80v-20a11.99685 11.99685 0 0 0 -12-12h-56a11.99685 11.99685 0 0 0 -12 12z" fill="#ad7d4d"/><path d="m288 392h16v16h-16z" fill="#966342" transform="matrix(-1 0 0 -1 592 800)"/></svg>