<svg viewBox="0 -24 512.001 512" xmlns="http://www.w3.org/2000/svg"><path d="m30.90625 115.296875c-3.007812 0-5.847656-1.824219-6.996094-4.800781-1.492187-3.863282.429688-8.203125 4.292969-9.695313l202.003906-78.003906c3.863281-1.488281 8.207031.429687 9.699219 4.296875 1.492188 3.863281-.433594 8.203125-4.296875 9.695312l-202.003906 78.003907c-.886719.34375-1.800781.503906-2.699219.503906zm0 0" fill="#464c51"/><path d="m481.09375 115.296875c-.898438 0-1.8125-.164063-2.699219-.503906l-202.003906-78.003907c-3.863281-1.492187-5.789063-5.832031-4.296875-9.699218 1.492188-3.863282 5.835938-5.785156 9.699219-4.292969l202.003906 78c3.863281 1.492187 5.785156 5.835937 4.292969 9.699219-1.148438 2.976562-3.988282 4.800781-6.996094 4.800781zm0 0" fill="#464c51"/><path d="m496.1875 411.929688h-480.375c-8.734375 0-15.8125-7.082032-15.8125-15.816407v-298.445312c0-8.734375 7.078125-15.8125 15.8125-15.8125h480.375c8.734375 0 15.8125 7.078125 15.8125 15.8125v298.445312c0 8.734375-7.078125 15.816407-15.8125 15.816407zm0 0" fill="#85cdea"/><path d="m481.09375 112.761719v268.261719h-450.1875v-268.261719zm0 0" fill="#596674"/><path d="m30.90625 112.761719h30.902344v268.261719h-30.902344zm0 0" fill="#565c62"/><path d="m189.191406 411.929688h-111.910156c-4.371094 0-7.917969-3.546876-7.917969-7.917969v-46.394531c0-4.371094 3.542969-7.914063 7.917969-7.914063h111.910156c4.371094 0 7.914063 3.542969 7.914063 7.914063v46.394531c0 4.371093-3.542969 7.917969-7.914063 7.917969zm0 0" fill="#fa9f6a"/><path d="m100.269531 404.011719v-46.394531c0-4.371094 3.542969-7.914063 7.917969-7.914063h-30.90625c-4.371094 0-7.917969 3.542969-7.917969 7.914063v46.394531c0 4.371093 3.542969 7.917969 7.917969 7.917969h30.90625c-4.375 0-7.917969-3.546876-7.917969-7.917969zm0 0" fill="#eb8f59"/><path d="m485.515625 464.894531h-459.03125c-14.628906 0-26.484375-11.855469-26.484375-26.484375 0-14.625 11.855469-26.480468 26.484375-26.480468h459.035156c14.625 0 26.480469 11.855468 26.480469 26.480468 0 14.628906-11.855469 26.484375-26.484375 26.484375zm0 0" fill="#fa9f6a"/><path d="m30.90625 438.410156c0-14.625 11.855469-26.480468 26.480469-26.480468h-30.902344c-14.628906 0-26.484375 11.855468-26.484375 26.480468 0 14.628906 11.855469 26.484375 26.484375 26.484375h30.902344c-14.625 0-26.480469-11.855469-26.480469-26.484375zm0 0" fill="#eb8f59"/><path d="m69.363281 380.816406v23.195313c0 4.371093 3.542969 7.917969 7.917969 7.917969h111.910156c4.371094 0 7.914063-3.542969 7.914063-7.917969v-23.195313zm0 0" fill="#efedee"/><path d="m100.269531 404.011719v-23.195313h-30.90625v23.195313c0 4.371093 3.542969 7.917969 7.917969 7.917969h30.90625c-4.375 0-7.917969-3.546876-7.917969-7.917969zm0 0" fill="#d9d7d8"/><path d="m279.839844 23.839844c0 13.167968-10.671875 23.84375-23.839844 23.84375s-23.839844-10.675782-23.839844-23.84375c0-13.164063 10.671875-23.839844 23.839844-23.839844s23.839844 10.675781 23.839844 23.839844zm0 0" fill="#fadc60"/><g fill="#efedee"><path d="m113.574219 299.535156c0-.246094.117187-.855468.34375-1.828125l33.046875-107.574219c.683594-2.15625 2.363281-3.828124 5.042968-5.007812 2.679688-1.183594 5.730469-1.773438 9.148438-1.773438 3.421875 0 6.5.65625 9.238281 1.96875 2.738281 1.308594 4.445313 3.164063 5.128907 5.558594l33.011718 107.578125c.226563.914063.34375 1.484375.34375 1.710938 0 2.511719-1.539062 4.675781-4.621094 6.5-3.078124 1.824219-6.214843 2.734375-9.40625 2.734375-4.21875 0-6.730468-1.480469-7.527343-4.445313l-6.496094-22.75h-36.644531l-6.375 22.761719c-.902344 2.957031-3.722656 4.433594-8.476563 4.433594-3.726562 0-7.285156-.941406-10.675781-2.832032-3.386719-1.886718-5.082031-4.234374-5.082031-7.035156zm35.492187-34.769531h29.578125l-14.878906-52.507813zm0 0"/><path d="m223.285156 302.5625v-111.171875c0-2.164063.964844-3.875 2.90625-5.132813 1.9375-1.25 4.214844-1.878906 6.839844-1.878906h33.011719c22.917969 0 34.378906 10.035156 34.378906 30.101563 0 13.914062-4.847656 22.976562-14.539063 27.195312 5.816407 2.28125 10.203126 5.503907 13.171876 9.664063 2.960937 4.164062 4.445312 10.234375 4.445312 18.214844v3.59375c0 12.652343-3.078125 21.863281-9.234375 27.621093-6.160156 5.757813-14.484375 8.636719-24.972656 8.636719h-36.261719c-2.851562 0-5.1875-.683594-7.011719-2.054688-1.824219-1.367187-2.734375-2.960937-2.734375-4.789062zm22.0625-69.609375h19.15625c4.445313 0 7.839844-1.3125 10.175782-3.933594 2.335937-2.621093 3.507812-6.214843 3.507812-10.777343 0-4.445313-1.226562-7.953126-3.675781-10.519532-2.453125-2.5625-5.847657-3.847656-10.179688-3.847656h-18.984375zm0 56.953125h19.328125c11.058594 0 16.589844-6.210938 16.589844-18.640625v-2.738281c0-6.382813-1.398437-11-4.191406-13.855469-2.792969-2.847656-6.925781-4.273437-12.398438-4.273437h-19.328125zm0 0"/><path d="m318.207031 271.265625v-47.71875c0-13.453125 3.648438-23.347656 10.945313-29.675781s16.820312-9.492188 28.566406-9.492188c11.972656 0 21.746094 2.964844 29.332031 8.894532 7.582031 5.929687 11.375 13.796874 11.375 23.601562 0 4.21875-.855469 7.097656-2.566406 8.636719-1.710937 1.539062-4.5625 2.308593-8.550781 2.308593-7.300782 0-11.007813-2.335937-11.121094-7.011718-.113281-1.480469-.253906-2.761719-.425781-3.847656-.171875-1.082032-.628907-2.507813-1.367188-4.277344-.746093-1.765625-1.683593-3.25-2.824219-4.445313-1.140624-1.199219-2.851562-2.222656-5.128906-3.078125-2.285156-.855468-4.960937-1.285156-8.039062-1.285156-11.972656 0-17.960938 6.558594-17.960938 19.667969v47.71875c0 13.117187 6.097656 19.671875 18.300782 19.671875 3.648437 0 6.699218-.570313 9.152343-1.710938 2.449219-1.136718 4.214844-2.765625 5.300781-4.875 1.082032-2.109375 1.820313-3.988281 2.222657-5.644531.398437-1.652344.65625-3.675781.769531-6.070313.34375-4.675781 3.992188-7.015624 10.949219-7.015624 3.988281 0 6.867187.769531 8.636719 2.308593 1.765624 1.542969 2.648437 4.421875 2.648437 8.640625 0 10.261719-3.789063 18.46875-11.371094 24.628906-7.585937 6.15625-17.421875 9.234376-29.503906 9.234376-11.746094 0-21.238281-3.164063-28.480469-9.492188-7.238281-6.328125-10.859375-16.21875-10.859375-29.671875zm0 0"/></g></svg>